<svg xmlns="http://www.w3.org/2000/svg" viewBox="0 0 500 500" width="500" height="500" role="img" aria-label="3">
  <defs><linearGradient id="g" x1="0" y1="0" x2="1" y2="0"><stop offset="0" stop-color="#00ff21"/><stop offset="0.52" stop-color="#00c85b"/><stop offset="1" stop-color="#0878c9"/></linearGradient></defs>
  <path d="M146.4,30.0 L128.2,51.8 L113.6,146.4 L131.8,160.9 L211.8,164.5 L182.7,197.3 L168.2,288.2 L186.4,302.7 L259.1,302.7 L262.7,317.3 L208.2,331.8 L110.0,299.1 L44.5,404.5 L142.7,459.1 L299.1,451.8 L360.9,419.1 L411.8,350.0 L411.8,259.1 L364.5,197.3 L433.6,135.5 L448.2,40.9Z" fill="#020403"/>
  <path d="M146.4,30.0 L128.2,51.8 L113.6,146.4 L131.8,160.9 L211.8,164.5 L182.7,197.3 L168.2,288.2 L186.4,302.7 L259.1,302.7 L262.7,317.3 L208.2,331.8 L110.0,299.1 L44.5,404.5 L70.0,430.0 L142.7,459.1 L215.5,466.4 L299.1,451.8 L360.9,419.1 L411.8,350.0 L411.8,259.1 L364.5,197.3 L433.6,135.5 L448.2,40.9 L430.0,30.0Z M157.3,51.8 L426.4,55.5 L419.1,117.3 L324.5,204.5 L382.7,248.2 L397.3,284.5 L393.6,339.1 L350.0,400.9 L299.1,430.0 L171.8,440.9 L106.4,422.7 L73.6,400.9 L117.3,324.5 L164.5,346.4 L233.6,353.6 L262.7,346.4 L284.5,320.9 L277.3,288.2 L193.6,273.6 L204.5,208.2 L280.9,139.1 L142.7,139.1 L139.1,113.6Z" fill="url(#g)" fill-rule="evenodd"/>
</svg>